<mxfile host="app.diagrams.net" modified="2023-10-05T13:12:26.780Z" agent="Mozilla/5.0 (Windows NT 10.0; Win64; x64) AppleWebKit/537.36 (KHTML, like Gecko) Chrome/109.0.0.0 Safari/537.36" version="22.0.2" etag="ZaZNjpf9yCbzf3X3WiD2" type="device">
  <diagram id="t5QW-NeImQ0G-Nq-mODD" name="Страница — 1">
    <mxGraphModel dx="1114" dy="484" grid="1" gridSize="10" guides="1" tooltips="1" connect="1" arrows="1" fold="1" page="1" pageScale="1" pageWidth="827" pageHeight="1169" math="0" shadow="0">
      <root>
        <mxCell id="0" />
        <mxCell id="1" parent="0" />
        <mxCell id="RnmfC3f4lhNJhpFyxQyh-1" value="кладовщик" style="shape=umlActor;verticalLabelPosition=bottom;verticalAlign=top;html=1;outlineConnect=0;" vertex="1" parent="1">
          <mxGeometry x="110" y="540" width="30" height="60" as="geometry" />
        </mxCell>
        <mxCell id="RnmfC3f4lhNJhpFyxQyh-2" value="клиент" style="shape=umlActor;verticalLabelPosition=bottom;verticalAlign=top;html=1;outlineConnect=0;" vertex="1" parent="1">
          <mxGeometry x="520" y="540" width="30" height="60" as="geometry" />
        </mxCell>
        <mxCell id="RnmfC3f4lhNJhpFyxQyh-4" value="" style="rounded=0;whiteSpace=wrap;html=1;rotation=90;fillColor=#E6FFCC;strokeColor=#336600;" vertex="1" parent="1">
          <mxGeometry x="-30" y="780" width="310" height="20" as="geometry" />
        </mxCell>
        <mxCell id="RnmfC3f4lhNJhpFyxQyh-5" value="" style="rounded=0;whiteSpace=wrap;html=1;rotation=90;fillColor=#E6FFCC;strokeColor=#336600;" vertex="1" parent="1">
          <mxGeometry x="380" y="780" width="310" height="20" as="geometry" />
        </mxCell>
        <mxCell id="RnmfC3f4lhNJhpFyxQyh-6" value="" style="endArrow=classic;html=1;rounded=0;exitX=0.275;exitY=0.992;exitDx=0;exitDy=0;exitPerimeter=0;" edge="1" parent="1" source="RnmfC3f4lhNJhpFyxQyh-5" target="RnmfC3f4lhNJhpFyxQyh-7">
          <mxGeometry width="50" height="50" relative="1" as="geometry">
            <mxPoint x="520" y="720" as="sourcePoint" />
            <mxPoint x="340" y="720" as="targetPoint" />
          </mxGeometry>
        </mxCell>
        <mxCell id="RnmfC3f4lhNJhpFyxQyh-7" value="наличие&lt;br&gt;накладной" style="rounded=0;whiteSpace=wrap;html=1;" vertex="1" parent="1">
          <mxGeometry x="240" y="690" width="120" height="60" as="geometry" />
        </mxCell>
        <mxCell id="RnmfC3f4lhNJhpFyxQyh-8" value="" style="endArrow=classic;html=1;rounded=0;exitX=0;exitY=0.5;exitDx=0;exitDy=0;entryX=0.276;entryY=0.006;entryDx=0;entryDy=0;entryPerimeter=0;" edge="1" parent="1" source="RnmfC3f4lhNJhpFyxQyh-7" target="RnmfC3f4lhNJhpFyxQyh-4">
          <mxGeometry width="50" height="50" relative="1" as="geometry">
            <mxPoint x="170" y="730" as="sourcePoint" />
            <mxPoint x="220" y="680" as="targetPoint" />
          </mxGeometry>
        </mxCell>
        <mxCell id="RnmfC3f4lhNJhpFyxQyh-9" value="проверить" style="text;html=1;strokeColor=none;fillColor=none;align=center;verticalAlign=middle;whiteSpace=wrap;rounded=0;" vertex="1" parent="1">
          <mxGeometry x="160" y="690" width="60" height="30" as="geometry" />
        </mxCell>
        <mxCell id="RnmfC3f4lhNJhpFyxQyh-10" value="предъявить" style="text;html=1;strokeColor=none;fillColor=none;align=center;verticalAlign=middle;whiteSpace=wrap;rounded=0;" vertex="1" parent="1">
          <mxGeometry x="414" y="690" width="60" height="30" as="geometry" />
        </mxCell>
        <mxCell id="RnmfC3f4lhNJhpFyxQyh-11" value="" style="endArrow=none;dashed=1;html=1;rounded=0;exitX=0.5;exitY=1;exitDx=0;exitDy=0;" edge="1" parent="1" source="RnmfC3f4lhNJhpFyxQyh-7">
          <mxGeometry width="50" height="50" relative="1" as="geometry">
            <mxPoint x="280" y="820" as="sourcePoint" />
            <mxPoint x="300" y="850" as="targetPoint" />
          </mxGeometry>
        </mxCell>
        <mxCell id="RnmfC3f4lhNJhpFyxQyh-12" value="" style="endArrow=classic;html=1;rounded=0;exitX=0.569;exitY=-0.012;exitDx=0;exitDy=0;exitPerimeter=0;" edge="1" parent="1" source="RnmfC3f4lhNJhpFyxQyh-4">
          <mxGeometry width="50" height="50" relative="1" as="geometry">
            <mxPoint x="280" y="820" as="sourcePoint" />
            <mxPoint x="300" y="811" as="targetPoint" />
          </mxGeometry>
        </mxCell>
        <mxCell id="RnmfC3f4lhNJhpFyxQyh-14" value="отказать в выдаче" style="text;html=1;strokeColor=none;fillColor=none;align=center;verticalAlign=middle;whiteSpace=wrap;rounded=0;" vertex="1" parent="1">
          <mxGeometry x="160" y="780" width="110" height="30" as="geometry" />
        </mxCell>
        <mxCell id="RnmfC3f4lhNJhpFyxQyh-16" value="выдача заказа" style="html=1;verticalAlign=bottom;endArrow=open;dashed=1;endSize=8;curved=0;rounded=0;entryX=0.533;entryY=0.988;entryDx=0;entryDy=0;entryPerimeter=0;" edge="1" parent="1" target="RnmfC3f4lhNJhpFyxQyh-5">
          <mxGeometry relative="1" as="geometry">
            <mxPoint x="300" y="800" as="sourcePoint" />
            <mxPoint x="520" y="800" as="targetPoint" />
          </mxGeometry>
        </mxCell>
        <mxCell id="RnmfC3f4lhNJhpFyxQyh-17" value="" style="endArrow=none;html=1;rounded=0;" edge="1" parent="1">
          <mxGeometry width="50" height="50" relative="1" as="geometry">
            <mxPoint x="295" y="840" as="sourcePoint" />
            <mxPoint x="305" y="830" as="targetPoint" />
            <Array as="points">
              <mxPoint x="295" y="840" />
            </Array>
          </mxGeometry>
        </mxCell>
        <mxCell id="RnmfC3f4lhNJhpFyxQyh-18" value="" style="endArrow=none;html=1;rounded=0;" edge="1" parent="1">
          <mxGeometry width="50" height="50" relative="1" as="geometry">
            <mxPoint x="305" y="840" as="sourcePoint" />
            <mxPoint x="295" y="830" as="targetPoint" />
            <Array as="points">
              <mxPoint x="295" y="830" />
            </Array>
          </mxGeometry>
        </mxCell>
      </root>
    </mxGraphModel>
  </diagram>
</mxfile>
